<?xml version="1.0" encoding="utf-8"?>
<!-- Generator: Adobe Illustrator 24.0.0, SVG Export Plug-In . SVG Version: 6.00 Build 0)  -->
<svg version="1.1" id="Capa_1" xmlns="http://www.w3.org/2000/svg" xmlns:xlink="http://www.w3.org/1999/xlink" x="0px" y="0px"
	 viewBox="0 0 169.1 332" style="enable-background:new 0 0 169.1 332;" xml:space="preserve">
<style type="text/css">
	.st0{fill:#B7372C;}
	.st1{fill:#CFCFD1;}
	.st2{fill:#D84232;}
	.st3{fill:#E0DFE5;}
</style>
<title>Silver</title>
<g id="Capa_2_1_">
	<g id="Layer_1">
		<g id="Silver">
			<path class="st0" d="M117.9,0l-58,151.2c-0.4,1,0.1,2.2,1.1,2.6c0.2,0.1,0.5,0.1,0.7,0.1h46.9c0.8,0,1.6-0.5,1.9-1.3L169.1,0
				H117.9z"/>
			<path class="st1" d="M120.3,145.7H48.8c-2.6,0-4.7,2.1-4.7,4.7l0,0V189H125v-38.6C125,147.8,122.9,145.7,120.3,145.7z
				 M114.8,156.9c0,2.5-2,4.5-4.5,4.5c0,0,0,0,0,0H58.7c-2.5,0-4.5-2-4.5-4.5c0,0,0,0,0,0l0,0c0-2.5,2-4.5,4.5-4.5c0,0,0,0,0,0h51.7
				C112.8,152.4,114.8,154.4,114.8,156.9C114.8,156.8,114.8,156.8,114.8,156.9z"/>
			<path class="st2" d="M109.7,152.6L51.2,0H0l58.5,152.6c0.3,0.8,1,1.3,1.9,1.3h48.4c0.6,0,1-0.5,1-1
				C109.7,152.8,109.7,152.7,109.7,152.6z"/>
			<circle class="st3" cx="84.5" cy="253.3" r="78.7"/>
			<path class="st1" d="M84.5,196.8c31.2,0,56.5,25.3,56.5,56.5c0,31.2-25.3,56.5-56.5,56.5c-31.2,0-56.5-25.3-56.5-56.5
				C28,222.1,53.3,196.9,84.5,196.8L84.5,196.8z M84.5,191.8c-34,0-61.5,27.5-61.5,61.5s27.5,61.5,61.5,61.5s61.5-27.5,61.5-61.5
				l0,0C146,219.4,118.5,191.8,84.5,191.8z"/>
		</g>
	</g>
</g>
</svg>
